<?xml version="1.0" encoding="UTF-8"?>
<svg width="512" height="512" viewBox="0 0 512 512" xmlns="http://www.w3.org/2000/svg">
  <!-- 
    LOGO BBIA - Reachy Mini VUE 3/4 (inclinaison tête)
    Tête légèrement penchée, effet "écoute/sympathie"
  -->
  
  <defs>
    <style>
      .head-34 { fill: #ffffff; stroke: #bfc9d9; stroke-width: 2; }
      .body-34 { fill: #ffffff; stroke: #bfc9d9; stroke-width: 2; }
      .eyes-34 { fill: #1a1a1a; }
      .eyes-bar-34 { fill: #1a1a1a; }
      .antenna-34 { fill: none; stroke: #1a1a1a; stroke-width: 2; stroke-linecap: round; }
    </style>
    
    <filter id="shadow-34">
      <feGaussianBlur in="SourceAlpha" stdDeviation="3"/>
      <feOffset dx="2" dy="2"/>
      <feComponentTransfer><feFuncA type="linear" slope="0.2"/></feComponentTransfer>
      <feMerge>
        <feMergeNode/>
        <feMergeNode in="SourceGraphic"/>
      </feMerge>
    </filter>
  </defs>
  
  <g transform="translate(280, 350)">
    
    <!-- CORPS (ovoïde, vue 3/4) -->
    <ellipse class="body-34" cx="0" cy="50" rx="90" ry="140" filter="url(#shadow-34)"/>
    
    <!-- COU -->
    <ellipse fill="#ffffff" cx="10" cy="-30" rx="60" ry="20" opacity="0.95"/>
    
    <!-- TÊTE (inclinée légèrement, effet "écoute") -->
    <g transform="translate(10, -90) rotate(-8)">
      <rect class="head-34" x="-70" y="-40" width="140" height="80" rx="12" ry="12" filter="url(#shadow-34)"/>
      
      <!-- YEUX -->
      <circle class="eyes-34" cx="-30" cy="-15" r="24"/>
      <circle class="eyes-34" cx="30" cy="-15" r="24"/>
      
      <!-- BARRE horizontale (bien horizontale) -->
      <rect class="eyes-bar-34" x="-32" y="-18" width="64" height="4" rx="2"/>
      
      <!-- Réflexion -->
      <circle fill="#ffffff" cx="-28" cy="-17" r="8" opacity="0.5"/>
      <circle fill="#ffffff" cx="28" cy="-17" r="8" opacity="0.5"/>
    </g>
    
    <!-- ANTENNES (2 fines, bien visibles 3/4) -->
    <path class="antenna-34" d="M 90 -50 Q 92 -70, 90 -90 Q 88 -110, 86 -130" opacity="0.9"/>
    <circle fill="#1a1a1a" cx="86" cy="-130" r="2"/>
    <path class="antenna-34" d="M -85 -52 Q -87 -72, -85 -92 Q -83 -112, -81 -132" opacity="0.8"/>
    <circle fill="#1a1a1a" cx="-81" cy="-132" r="2"/>
    
  </g>
  
</svg>

